<svg xmlns="http://www.w3.org/2000/svg" viewBox="0 0 1920 1080" width="1920" height="1080">
  <defs>
    <filter id="amberGlow" x="-50%" y="-50%" width="200%" height="200%">
      <feGaussianBlur in="SourceGraphic" stdDeviation="8" result="blur"/>
      <feColorMatrix in="blur" type="matrix"
        values="1 0 0 0 0
                0.6 0 0 0 0
                0 0 0 0 0
                0 0 0 0.6 0" result="glow"/>
      <feMerge>
        <feMergeNode in="glow"/>
        <feMergeNode in="SourceGraphic"/>
      </feMerge>
    </filter>
    <filter id="blueGlow" x="-50%" y="-50%" width="200%" height="200%">
      <feGaussianBlur in="SourceGraphic" stdDeviation="4" result="blur"/>
      <feMerge>
        <feMergeNode in="blur"/>
        <feMergeNode in="SourceGraphic"/>
      </feMerge>
    </filter>
    <filter id="ambientGlow" x="-100%" y="-100%" width="300%" height="300%">
      <feGaussianBlur in="SourceGraphic" stdDeviation="80"/>
    </filter>
    <pattern id="grid" width="60" height="60" patternUnits="userSpaceOnUse">
      <path d="M 60 0 L 0 0 0 60" fill="none" stroke="#CBD5E1" stroke-width="0.5" opacity="0.35"/>
    </pattern>
  </defs>

  <!-- ============ BACKGROUND ============ -->
  <rect width="1920" height="1080" fill="#FAFBFC"/>
  <rect width="1920" height="1080" fill="url(#grid)" opacity="0.4"/>

  <!-- Ambient glow -->
  <circle cx="480" cy="500" r="320" fill="#3B82F6" opacity="0.035" filter="url(#ambientGlow)"/>
  <circle cx="520" cy="440" r="200" fill="#F59E0B" opacity="0.025" filter="url(#ambientGlow)"/>
  <circle cx="1300" cy="540" r="250" fill="#3B82F6" opacity="0.015" filter="url(#ambientGlow)"/>

  <!-- Accent lines -->
  <line x1="0" y1="920" x2="1920" y2="920" stroke="#E2E8F0" stroke-width="1" opacity="0.4"/>
  <line x1="0" y1="160" x2="1920" y2="160" stroke="#E2E8F0" stroke-width="1" opacity="0.4"/>
  <line x1="780" y1="0" x2="880" y2="1080" stroke="#E2E8F0" stroke-width="1" opacity="0.2"/>

  <!-- ============ OWL MASCOT (left, zoomed in) ============ -->
  <g transform="translate(440, 510) scale(1.75)">
    <!-- Shield -->
    <path d="
      M 0 185
      L -60 140
      L -67 105
      L -63 85
      L 0 72
      L 63 85
      L 67 105
      L 60 140
      Z
    " fill="#E8ECF1" stroke="#CBD5E1" stroke-width="1.2"/>
    <path d="
      M 0 172
      L -46 138
      L -52 110
      L -49 95
      L 0 83
      L 49 95
      L 52 110
      L 46 138
      Z
    " fill="none" stroke="#CBD5E1" stroke-width="0.8"/>
    <circle cx="0" cy="120" r="7" fill="#CBD5E1"/>
    <rect x="-3" y="124" width="6" height="12" rx="1.5" fill="#CBD5E1"/>

    <!-- Owl Body -->
    <path d="
      M 0 -140
      L 59 -98
      L 73 -84
      L 80 -49
      L 69 -14
      L 38 7
      L 0 14
      L -38 7
      L -69 -14
      L -80 -49
      L -73 -84
      L -59 -98
      Z
    " fill="#1E293B"/>

    <!-- Chest -->
    <path d="
      M 0 -56
      L 34 -35
      L 38 -7
      L 24 21
      L 0 28
      L -24 21
      L -38 -7
      L -34 -35
      Z
    " fill="#263349"/>

    <!-- Head -->
    <path d="
      M 0 -154
      L 52 -115
      L 62 -87
      L 59 -59
      L 38 -42
      L 0 -35
      L -38 -42
      L -59 -59
      L -62 -87
      L -52 -115
      Z
    " fill="#1E293B"/>

    <!-- Ear tufts -->
    <polygon points="-50,-112 -64,-154 -39,-122" fill="#1E293B"/>
    <polygon points="-46,-109 -57,-140 -36,-119" fill="#263349"/>
    <polygon points="50,-112 64,-154 39,-122" fill="#1E293B"/>
    <polygon points="46,-109 57,-140 36,-119" fill="#263349"/>

    <!-- Facial discs -->
    <path d="M -29 -92 C -46 -85, -55 -68, -50 -53 C -45 -36, -29 -28, -14 -32 C 0 -35, 0 -45, -4 -59 C -8 -80, -15 -92, -29 -92 Z" fill="#263349"/>
    <path d="M 29 -92 C 46 -85, 55 -68, 50 -53 C 45 -36, 29 -28, 14 -32 C 0 -35, 0 -45, 4 -59 C 8 -80, 15 -92, 29 -92 Z" fill="#263349"/>

    <!-- Beak -->
    <polygon points="0,-72 -7,-60 0,-49 7,-60" fill="#F59E0B"/>
    <polygon points="0,-72 -7,-60 0,-57 7,-60" fill="#FBBF24"/>

    <!-- Left eye - closed -->
    <circle cx="-29" cy="-63" r="20" fill="#151E2E"/>
    <path d="M -43 -63 Q -36 -56 -29 -56 Q -22 -56 -15 -63" stroke="#3B82F6" stroke-width="1.8" fill="none" stroke-linecap="round" opacity="0.5"/>
    <line x1="-39" y1="-64" x2="-41" y2="-60" stroke="#3B82F6" stroke-width="1" stroke-linecap="round" opacity="0.3"/>
    <line x1="-19" y1="-64" x2="-17" y2="-60" stroke="#3B82F6" stroke-width="1" stroke-linecap="round" opacity="0.3"/>

    <!-- Right eye - open -->
    <circle cx="29" cy="-63" r="24" fill="none" stroke="#F59E0B" stroke-width="2.5" opacity="0.35" filter="url(#amberGlow)"/>
    <circle cx="29" cy="-63" r="21" fill="none" stroke="#F59E0B" stroke-width="1.2" opacity="0.22"/>
    <circle cx="29" cy="-63" r="20" fill="#151E2E"/>
    <circle cx="29" cy="-63" r="15" fill="#1A3A6E"/>
    <circle cx="29" cy="-63" r="12" fill="#3B82F6" filter="url(#blueGlow)"/>
    <circle cx="29" cy="-63" r="8" fill="#2563EB"/>
    <circle cx="29" cy="-63" r="5" fill="#0F172A"/>
    <circle cx="33" cy="-68" r="3" fill="white" opacity="0.8"/>
    <circle cx="25" cy="-59" r="1.5" fill="white" opacity="0.5"/>

    <!-- Wing details -->
    <line x1="-67" y1="-49" x2="-39" y2="-10" stroke="#2A3A52" stroke-width="1.2" stroke-linecap="round"/>
    <line x1="-71" y1="-38" x2="-43" y2="0" stroke="#2A3A52" stroke-width="1.2" stroke-linecap="round"/>
    <line x1="-73" y1="-28" x2="-45" y2="7" stroke="#2A3A52" stroke-width="1.2" stroke-linecap="round"/>
    <line x1="67" y1="-49" x2="39" y2="-10" stroke="#2A3A52" stroke-width="1.2" stroke-linecap="round"/>
    <line x1="71" y1="-38" x2="43" y2="0" stroke="#2A3A52" stroke-width="1.2" stroke-linecap="round"/>
    <line x1="73" y1="-28" x2="45" y2="7" stroke="#2A3A52" stroke-width="1.2" stroke-linecap="round"/>

    <!-- Chest chevrons -->
    <polyline points="-15,-14 0,-7 15,-14" fill="none" stroke="#2A3A52" stroke-width="1"/>
    <polyline points="-18,-3 0,4 18,-3" fill="none" stroke="#2A3A52" stroke-width="1"/>
    <polyline points="-16,7 0,14 16,7" fill="none" stroke="#2A3A52" stroke-width="1"/>

    <!-- Talons -->
    <path d="M -18 14 L -21 25 L -25 21" stroke="#2A3A52" stroke-width="1.5" fill="none" stroke-linecap="round"/>
    <path d="M -15 14 L -18 27 L -22 23" stroke="#2A3A52" stroke-width="1.5" fill="none" stroke-linecap="round"/>
    <path d="M 18 14 L 21 25 L 25 21" stroke="#2A3A52" stroke-width="1.5" fill="none" stroke-linecap="round"/>
    <path d="M 15 14 L 18 27 L 22 23" stroke="#2A3A52" stroke-width="1.5" fill="none" stroke-linecap="round"/>
  </g>

  <!-- ============ WORDMARK (right side, bigger) ============ -->

  <!-- "RESTLESS" wordmark -->
  <text x="1310" y="510" font-family="'Inter', 'SF Pro Display', 'Segoe UI', system-ui, -apple-system, sans-serif" 
        font-size="160" font-weight="800" letter-spacing="8" fill="#0F172A" text-anchor="middle">
    RESTLESS
  </text>

  <!-- Accent line -->
  <line x1="1020" y1="545" x2="1600" y2="545" stroke="#CBD5E1" stroke-width="2.5"/>
  <line x1="1220" y1="545" x2="1360" y2="545" stroke="#F59E0B" stroke-width="2.5"/>
  <circle cx="1360" cy="545" r="5" fill="#3B82F6"/>

  <!-- Tagline -->
  <text x="1310" y="600" font-family="'Inter', 'SF Pro Display', 'Segoe UI', system-ui, -apple-system, sans-serif" 
        font-size="28" font-weight="400" letter-spacing="10" fill="#94A3B8" text-anchor="middle">
    YOUR MONEY NEVER SLEEPS
  </text>

  <!-- Protocol label -->
  <text x="1310" y="650" font-family="'Inter', 'SF Pro Display', 'Segoe UI', system-ui, -apple-system, sans-serif" 
        font-size="18" font-weight="500" letter-spacing="5" fill="#CBD5E1" text-anchor="middle">
    YIELD-BEARING ESCROW PROTOCOL
  </text>

  <!-- ============ CORNER ACCENTS ============ -->
  <path d="M 40 40 L 40 90" stroke="#3B82F6" stroke-width="2.5" opacity="0.25"/>
  <path d="M 40 40 L 90 40" stroke="#3B82F6" stroke-width="2.5" opacity="0.25"/>
  <path d="M 1880 40 L 1880 90" stroke="#3B82F6" stroke-width="2.5" opacity="0.25"/>
  <path d="M 1880 40 L 1830 40" stroke="#3B82F6" stroke-width="2.5" opacity="0.25"/>
  <path d="M 40 1040 L 40 990" stroke="#3B82F6" stroke-width="2.5" opacity="0.25"/>
  <path d="M 40 1040 L 90 1040" stroke="#3B82F6" stroke-width="2.5" opacity="0.25"/>
  <path d="M 1880 1040 L 1880 990" stroke="#3B82F6" stroke-width="2.5" opacity="0.25"/>
  <path d="M 1880 1040 L 1830 1040" stroke="#3B82F6" stroke-width="2.5" opacity="0.25"/>

  <!-- Floating shapes -->
  <polygon points="140,240 155,260 140,280 125,260" fill="none" stroke="#3B82F6" stroke-width="1.2" opacity="0.15"/>
  <polygon points="1720,780 1740,815 1700,815" fill="none" stroke="#F59E0B" stroke-width="1.2" opacity="0.12"/>
  <circle cx="1770" cy="260" r="6" fill="none" stroke="#3B82F6" stroke-width="1.2" opacity="0.15"/>
  <circle cx="280" cy="870" r="3" fill="#3B82F6" opacity="0.1"/>
  <circle cx="295" cy="882" r="3" fill="#3B82F6" opacity="0.08"/>
  <circle cx="275" cy="890" r="3" fill="#3B82F6" opacity="0.09"/>
</svg>
