<?xml version="1.0" encoding="UTF-8"?>
<svg xmlns="http://www.w3.org/2000/svg" viewBox="0 0 320 280" width="320" height="280">
  <rect x="90" y="170" width="140" height="90" rx="8" fill="#1E293B" stroke="#2A3A52" stroke-width="1.5"/>
  <rect x="100" y="180" width="120" height="70" rx="4" fill="#0F172A"/>
  <path d="M 90 170 L 75 130 L 195 130 L 230 170" fill="#1E293B" stroke="#2A3A52" stroke-width="1.5"/>
  <path d="M 80 135 L 190 135" stroke="#2A3A52" stroke-width="0.8" opacity="0.5"/>
  <circle cx="175" cy="148" r="6" fill="none" stroke="#2A3A52" stroke-width="1.5"/>
  <circle cx="175" cy="148" r="2" fill="#2A3A52"/>
  <rect x="120" y="200" width="80" height="30" rx="4" fill="none" stroke="#2A3A52" stroke-width="1" stroke-dasharray="6 4" opacity="0.4"/>
  <g transform="translate(160, 128) scale(0.52)">
    <path d="M 0 -60 L 40 -30 L 45 0 L 35 25 L 0 32 L -35 25 L -45 0 L -40 -30 Z" fill="#1E293B"/>
    <path d="M 0 -20 L 22 -8 L 24 10 L 15 22 L 0 26 L -15 22 L -24 10 L -22 -8 Z" fill="#263349"/>
    <path d="M 0 -90 L 35 -65 L 40 -45 L 38 -28 L 24 -18 L 0 -14 L -24 -18 L -38 -28 L -40 -45 L -35 -65 Z" fill="#1E293B"/>
    <polygon points="-32,-62 -42,-90 -25,-68" fill="#1E293B"/>
    <polygon points="-29,-60 -37,-80 -22,-65" fill="#263349"/>
    <polygon points="32,-62 42,-90 25,-68" fill="#1E293B"/>
    <polygon points="29,-60 37,-80 22,-65" fill="#263349"/>
    <path d="M -18 -55 C -30 -50, -35 -40, -32 -32 C -29 -22, -18 -18, -9 -20 C 0 -22, 0 -28, -2 -36 C -5 -48, -10 -55, -18 -55 Z" fill="#263349"/>
    <path d="M 18 -55 C 30 -50, 35 -40, 32 -32 C 29 -22, 18 -18, 9 -20 C 0 -22, 0 -28, 2 -36 C 5 -48, 10 -55, 18 -55 Z" fill="#263349"/>
    <polygon points="0,-40 -5,-32 0,-24 5,-32" fill="#F59E0B"/>
    <polygon points="0,-40 -5,-32 0,-30 5,-32" fill="#FBBF24"/>
    <circle cx="-18" cy="-36" r="12" fill="#151E2E"/>
    <path d="M -26 -36 Q -22 -31 -18 -31 Q -14 -31 -10 -36" stroke="#3B82F6" stroke-width="1.8" fill="none" stroke-linecap="round" opacity="0.4"/>
    <circle cx="18" cy="-36" r="12" fill="#151E2E"/>
    <path d="M 10 -36 Q 14 -31 18 -31 Q 22 -31 26 -36" stroke="#3B82F6" stroke-width="1.8" fill="none" stroke-linecap="round" opacity="0.4"/>
    <text x="45" y="-70" font-family="Inter, Helvetica, Arial, sans-serif" font-size="16" font-weight="600" fill="#3B82F6" opacity="0.4">z</text>
    <text x="58" y="-85" font-family="Inter, Helvetica, Arial, sans-serif" font-size="20" font-weight="600" fill="#3B82F6" opacity="0.3">z</text>
    <text x="72" y="-96" font-family="Inter, Helvetica, Arial, sans-serif" font-size="14" font-weight="600" fill="#3B82F6" opacity="0.2">z</text>
    <polyline points="-10,-4 0,1 10,-4" fill="none" stroke="#2A3A52" stroke-width="0.8"/>
    <polyline points="-12,5 0,10 12,5" fill="none" stroke="#2A3A52" stroke-width="0.8"/>
  </g>
  <ellipse cx="160" cy="265" rx="80" ry="6" fill="#0F172A" opacity="0.3"/>
</svg>
