<?xml version="1.0" encoding="UTF-8"?>
<svg xmlns="http://www.w3.org/2000/svg" viewBox="0 0 48 48" width="48" height="48">
  <circle cx="24" cy="24" r="24" fill="#0F172A"/>
  <g transform="translate(24, 26) scale(0.28)">
    <path d="M 0 -154 L 52 -115 L 62 -87 L 59 -59 L 38 -42 L 0 -35 L -38 -42 L -59 -59 L -62 -87 L -52 -115 Z" fill="#1E293B"/>
    <polygon points="-50,-112 -64,-154 -39,-122" fill="#1E293B"/>
    <polygon points="-46,-109 -57,-140 -36,-119" fill="#263349"/>
    <polygon points="50,-112 64,-154 39,-122" fill="#1E293B"/>
    <polygon points="46,-109 57,-140 36,-119" fill="#263349"/>
    <path d="M -29 -92 C -46 -85, -55 -68, -50 -53 C -45 -36, -29 -28, -14 -32 C 0 -35, 0 -45, -4 -59 C -8 -80, -15 -92, -29 -92 Z" fill="#263349"/>
    <path d="M 29 -92 C 46 -85, 55 -68, 50 -53 C 45 -36, 29 -28, 14 -32 C 0 -35, 0 -45, 4 -59 C 8 -80, 15 -92, 29 -92 Z" fill="#263349"/>
    <polygon points="0,-72 -7,-60 0,-49 7,-60" fill="#F59E0B"/>
    <polygon points="0,-72 -7,-60 0,-57 7,-60" fill="#FBBF24"/>
    <circle cx="-29" cy="-63" r="20" fill="#151E2E"/>
    <path d="M -43 -63 Q -36 -56 -29 -56 Q -22 -56 -15 -63" stroke="#3B82F6" stroke-width="2.5" fill="none" stroke-linecap="round" opacity="0.5"/>
    <circle cx="29" cy="-63" r="20" fill="#151E2E"/>
    <circle cx="29" cy="-63" r="15" fill="#1A3A6E"/>
    <circle cx="29" cy="-63" r="12" fill="#3B82F6"/>
    <circle cx="29" cy="-63" r="8" fill="#2563EB"/>
    <circle cx="29" cy="-63" r="5" fill="#0F172A"/>
    <circle cx="33" cy="-68" r="3" fill="#FFFFFF" opacity="0.7"/>
    <circle cx="25" cy="-59" r="1.5" fill="#FFFFFF" opacity="0.4"/>
  </g>
  <circle cx="24" cy="24" r="23" fill="none" stroke="#1E293B" stroke-width="1.5"/>
</svg>
