<?xml version="1.0" encoding="UTF-8"?>
<svg xmlns="http://www.w3.org/2000/svg" viewBox="0 0 320 280" width="320" height="280">
  <circle cx="160" cy="140" r="100" fill="none" stroke="#22C55E" stroke-width="2" opacity="0.2"/>
  <circle cx="160" cy="140" r="110" fill="none" stroke="#22C55E" stroke-width="1" opacity="0.1"/>
  <g transform="translate(160, 145) scale(0.65)">
    <path d="M 0 130 L -42 100 L -47 75 L -44 62 L 0 52 L 44 62 L 47 75 L 42 100 Z" fill="#94A3B8" stroke="#22C55E" stroke-width="1" opacity="0.5"/>
    <circle cx="0" cy="85" r="5" fill="#22C55E" opacity="0.4"/>
    <path d="M 0 -100 L 42 -70 L 52 -60 L 57 -35 L 49 -10 L 27 5 L 0 10 L -27 5 L -49 -10 L -57 -35 L -52 -60 L -42 -70 Z" fill="#E2E8F0"/>
    <path d="M 0 -40 L 24 -25 L 27 -5 L 17 15 L 0 20 L -17 15 L -27 -5 L -24 -25 Z" fill="#CBD5E1"/>
    <path d="M 0 -112 L 37 -82 L 44 -62 L 42 -42 L 27 -30 L 0 -25 L -27 -30 L -42 -42 L -44 -62 L -37 -82 Z" fill="#E2E8F0"/>
    <polygon points="-35,-80 -46,-115 -28,-87" fill="#E2E8F0"/>
    <polygon points="-33,-78 -41,-105 -26,-84" fill="#CBD5E1"/>
    <polygon points="35,-80 46,-115 28,-87" fill="#E2E8F0"/>
    <polygon points="33,-78 41,-105 26,-84" fill="#CBD5E1"/>
    <path d="M -20 -67 C -33 -62, -39 -50, -36 -40 C -32 -28, -20 -22, -10 -24 C 0 -26, 0 -33, -3 -43 C -6 -58, -12 -67, -20 -67 Z" fill="#CBD5E1"/>
    <path d="M 20 -67 C 33 -62, 39 -50, 36 -40 C 32 -28, 20 -22, 10 -24 C 0 -26, 0 -33, 3 -43 C 6 -58, 12 -67, 20 -67 Z" fill="#CBD5E1"/>
    <polygon points="0,-52 -5,-43 0,-35 5,-43" fill="#F59E0B"/>
    <polygon points="0,-52 -5,-43 0,-41 5,-43" fill="#FBBF24"/>
    <circle cx="-20" cy="-46" r="14" fill="#94A3B8"/>
    <circle cx="-20" cy="-46" r="10" fill="#1A3A6E"/>
    <circle cx="-20" cy="-46" r="8" fill="#3B82F6"/>
    <circle cx="-20" cy="-46" r="5.5" fill="#2563EB"/>
    <circle cx="-20" cy="-46" r="3.5" fill="#F1F5F9"/>
    <circle cx="-17" cy="-49" r="2" fill="#FFFFFF" opacity="0.8"/>
    <circle cx="20" cy="-46" r="17" fill="none" stroke="#F59E0B" stroke-width="1.5" opacity="0.25"/>
    <circle cx="20" cy="-46" r="14" fill="#94A3B8"/>
    <circle cx="20" cy="-46" r="10" fill="#1A3A6E"/>
    <circle cx="20" cy="-46" r="8" fill="#3B82F6"/>
    <circle cx="20" cy="-46" r="5.5" fill="#2563EB"/>
    <circle cx="20" cy="-46" r="3.5" fill="#F1F5F9"/>
    <circle cx="23" cy="-49" r="2" fill="#FFFFFF" opacity="0.8"/>
    <line x1="-48" y1="-35" x2="-28" y2="-7" stroke="#94A3B8" stroke-width="1" stroke-linecap="round"/>
    <line x1="-51" y1="-26" x2="-31" y2="0" stroke="#94A3B8" stroke-width="1" stroke-linecap="round"/>
    <line x1="48" y1="-35" x2="28" y2="-7" stroke="#94A3B8" stroke-width="1" stroke-linecap="round"/>
    <line x1="51" y1="-26" x2="31" y2="0" stroke="#94A3B8" stroke-width="1" stroke-linecap="round"/>
    <polyline points="-10,-10 0,-5 10,-10" fill="none" stroke="#94A3B8" stroke-width="0.8"/>
    <polyline points="-13,-2 0,4 13,-2" fill="none" stroke="#94A3B8" stroke-width="0.8"/>
  </g>
  <g transform="translate(230, 60)">
    <circle cx="0" cy="0" r="18" fill="#22C55E" opacity="0.2"/>
    <circle cx="0" cy="0" r="14" fill="#F1F5F9"/>
    <polyline points="-6,0 -2,5 7,-5" stroke="#22C55E" stroke-width="2.5" fill="none" stroke-linecap="round" stroke-linejoin="round"/>
  </g>
  <circle cx="100" cy="80" r="2" fill="#F59E0B" opacity="0.4"/>
  <circle cx="240" cy="200" r="1.5" fill="#3B82F6" opacity="0.35"/>
  <polygon points="80,180 82,174 84,180 82,186" fill="#F59E0B" opacity="0.3"/>
  <polygon points="250,100 252,95 254,100 252,105" fill="#3B82F6" opacity="0.3"/>
</svg>
